<svg width="292" height="391" xmlns="http://www.w3.org/2000/svg">
 <!-- Created with Method Draw - http://github.com/duopixel/Method-Draw/ -->
 <g id="Layer_1">
  <title>Layer 1</title>
  <path id="svg_1" d="m11.5,195.5l134.5,-181.5l134.5,181.5l-134.5,181.5l-134.5,-181.5z" stroke-dasharray="null" stroke-width="21" fill="#dbdbdb"/>
  <path d="m28.5,189c1,1 2.91761,1.38687 4,4c0.38268,0.92387 1.72399,4.22273 5,8c1.85319,2.13675 3.7464,4.16119 7,9c2.78994,4.14925 3.61065,5.15927 5,8c1.5841,3.23892 3,5 4,7c1,2 3.71412,5.21167 6,8c1.79319,2.18735 3.71412,5.21167 6,8c2.68979,3.28101 4.11214,3.9183 7,8c2.08247,2.94336 3.72399,5.22273 7,9c1.85319,2.13675 5.54901,4.60641 9,10c1.20514,1.88351 6.11366,8.89246 8,11c4.27038,4.77115 6,6 7,7c2,2 3,3 4,4c3,3 5,5 6,6c1,1 3.4588,3.69345 4,5c0.38268,0.92389 0.72399,2.22272 4,6c0.9266,1.06836 1.61732,4.07611 2,5c0.5412,1.30655 2.41886,1.25659 4,6c0.31623,0.94867 0.69255,5.186 2,7c1.65381,2.29453 3,3 4,6c1,3 2.69255,5.186 4,7c0.8269,1.14728 -1.09544,0.02264 -2,-4c-1.11867,-4.97479 -0.31075,-7.08026 -1,-10c-0.51375,-2.17624 -2.33749,-4.31 -4,-7c-0.7435,-1.203 -2.2565,-3.797 -3,-5c-1.66251,-2.69 -2.37202,-3.3851 -6,-6c-2.29454,-1.65381 -4.4588,-2.69345 -5,-4c-0.38268,-0.92389 -2,-3 -4,-4c-2,-1 -4,-2 -4,-1c0,3 7.186,1.69254 9,3c1.14727,0.8269 2,2 2,4c0,3 2,4.58578 2,6c0,1.41422 -1,1 -3,1c-1,0 -2.4588,-0.69345 -3,-2c-0.38268,-0.92389 -1,-1 -1,-4c0,-2 -1.4588,-5.69345 -2,-7c-0.38268,-0.92389 -1,-4 -3,-6c-1,-1 -2.54951,-2.5495 0,0c2.54951,2.5495 5.19409,5.88855 8,11c3.22805,5.88046 5.64886,10.19577 8,14c2.62866,4.25327 4,5 7,8c1,1 2.48625,2.82376 3,5c0.22975,0.97324 2,3 3,5c1,2 2.76952,3.39099 5,7c1.66251,2.69 1.23463,4.15225 2,6c0.5412,1.30655 2,2 3,2c0,0 0.77025,-0.02676 1,-1c0.51375,-2.17624 1.78986,-4.07843 3,-7c0.85571,-2.06586 1.68378,-4.05133 2,-5c1.58115,-4.74341 4.56342,-8.34235 7,-11c4.32713,-4.71973 6,-5 8,-7c1,-1 3,-3 5,-5c1,-1 2.797,-2.2565 4,-3c2.68999,-1.66251 5.10341,-3.90634 6,-5c2.28587,-2.78833 5.186,-4.69254 7,-6c1.14726,-0.8269 6.10341,-5.90634 7,-7c4.57176,-5.57666 8.54901,-13.60641 12,-19c3.61542,-5.65054 5.95517,-10.54916 7,-14c0.57957,-1.91418 1,-4 -1,-4c-3,0 -10.1468,6.86325 -12,9c-3.27602,3.77728 -4.72398,6.22272 -8,10c-3.70638,4.2735 -8.1133,7.83505 -14,12c-4.0817,2.88785 -7,6 -10,9c-2,2 -4.22273,3.724 -8,7c-2.13675,1.85318 -4.85274,5.1731 -6,6c-1.814,1.30746 -5.69255,3.186 -7,5c-0.8269,1.14728 -2,3 -2,3c4,-4 15,-15 16,-16c2,-2 2.69344,-4.5412 4,-4c4.6194,1.91342 -4.83179,12.52216 -8,19c-1.38936,2.84073 -3.186,6.69254 -5,8c-1.14726,0.8269 -2,3 -3,4c-1,1 -2.07613,1.38269 -3,1c-2.61313,-1.0824 -2,-8 -2,-15c0,-9 0,-19 0,-51c0,-23 0.9709,-40.06766 0,-47c-1.00977,-7.20975 -2,-13 -2,-24c0,-9 0,-14 0,-19c0,-4 0.49623,-6.90779 1,-11c0.36655,-2.97752 1,-5 1,-6c0,-3 0,-7 0,-9c0,-4 -1.2565,-8.797 -2,-10c-1.66251,-2.68999 -0.61731,-4.07613 -1,-5c-0.5412,-1.30656 -2.1731,-1.14726 -3,0c-1.30745,1.814 -1.49623,6.90779 -2,11c-0.73309,5.95505 -1,11 -1,18c0,9 0,14 0,19c0,2 0,6 0,11c0,4 0,10 0,14c0,2 0.49829,3.93796 1,10c0.32993,3.98637 0.97252,6.64749 2,11c0.68925,2.91975 0,4 0,9c0,5 0,10 0,13c0,4 0,8 0,12c0,4 0,6 0,10c0,4 0,6 0,10c0,4 0,6 0,7c0,2 0,3 0,4c0,1 -1,4 -1,6c0,2 -1,3 -1,4c0,1 -1,1 -1,2c0,1 1.57719,2.44806 0,5c-1.17557,1.9021 -4,-4 -4,-11c0,-5 1.37137,-13.02829 2,-20c1.00406,-11.13516 3,-18 3,-22c0,-4 1,-11 1,-14c0,-7 2,-11 2,-15c0,-8 0,-13 0,-21c0,-8 0.49756,-14.9258 1,-20c0.59123,-5.97079 0,-11 0,-16c0,-6 -0.49269,-11.02434 0,-16c0.50244,-5.0742 2,-9 2,-14c0,-5 2,-12 2,-16c0,-9 0.49756,-14.9258 1,-20c0.19708,-1.99026 0.6032,-3.93874 0,-1c-1.53127,7.46024 -6.34445,19.76052 -11,31c-3.29196,7.94751 -6.31177,11.90494 -8,18c-2.461,8.88501 -1.26129,16.25745 -3,22c-1.04483,3.45085 -2,8 -2,16c0,3 0,7 0,12c0,7 0,11 0,16c0,3 0,5 0,12c0,2 0,7 0,12c0,5 -0.75563,9.01498 -1,11c-0.50378,4.09222 -1.49755,7.92578 -2,13c-0.39415,3.98053 -2.11587,6.96384 -3,10c-1.15277,3.95868 -1.48626,4.82376 -2,7c-0.4595,1.9465 -0.34619,3.70547 -2,6c-1.30745,1.814 -0.61732,3.07611 -1,4c-0.5412,1.30655 -0.61732,3.07611 -1,4c-0.5412,1.30655 -0.29289,2.29291 -1,3c-1.41422,1.41422 -3.0535,0.4595 -5,0c-2.17625,-0.51373 -3.186,-0.69254 -5,-2c-1.14727,-0.8269 -1,-1 -1,-2c0,-1 0,-4 0,-5c0,-1 -0.30875,-3.07181 1,-8c0.81165,-3.05634 2.49346,-6.87857 3,-10c0.32037,-1.97418 3.08398,-5.96017 4,-8c2.20606,-4.91257 4.25935,-7.77063 6,-10c3.58844,-4.59599 5.25195,-7.88051 8,-14c2.20606,-4.91257 4.18835,-8.94366 5,-12c1.30876,-4.92821 2.46552,-9.83809 4,-15c1.45294,-4.88763 2,-8 2,-10c0,-3 0.65456,-3.78423 3,-12c1.39975,-4.90314 2.49345,-9.87856 3,-13c0.80092,-4.93544 1.5876,-8.01704 2,-13c0.50171,-6.06204 0.47632,-15.39462 3,-22c1.28683,-3.3681 2.13911,-5.97418 3,-11c1.19383,-6.96956 2.19089,-11.95469 4,-20c1.11867,-4.97479 1,-12 1,-18c0,-5 -0.19028,-7.11848 -2,-4c-5.61171,9.66999 -10.05446,16.97856 -12,22c-3.08676,7.96693 -4,16 -6,21c-2,5 -3.06982,9.98878 -4,16c-1.08131,6.9879 -3.89833,18.29185 -6,24c-2.01466,5.47185 -3.98163,9.71201 -5,15c-0.75643,3.92783 -0.74276,7.62074 -2,11c-2.81127,7.55624 -1.5695,13.133 -3,17c-1.55159,4.19435 -2.24357,7.07217 -3,11c-1.01837,5.28799 -2,6 -2,9c0,1 -0.98163,2.71201 -2,8c-0.56732,2.94586 -1,5 -1,7c0,1 -0.31074,2.08025 -1,5c-0.51374,2.17624 -1.37866,3.27042 -2,2c-3.54217,-7.24245 -1,-12 -1,-21c0,-11 -0.90337,-21.25336 4,-37c2.54022,-8.15765 4.36097,-17.14223 6,-23c1.45107,-5.18599 2.84723,-9.04132 4,-13c0.88413,-3.03616 1.54863,-5.76993 3,-10c1.65482,-4.82303 3.98692,-9.75711 5,-16c0.32037,-1.97418 0.8265,-6.01517 1,-7c2.0308,-11.52718 5.98163,-16.71201 7,-22c0.75642,-3.92783 2.08099,-9.107 3,-13c0.51375,-2.17625 1.13065,-4.12872 2,-7c1.04483,-3.45084 2.48625,-4.82375 3,-7c0.91901,-3.893 0.51945,-5.03873 1,-8c0.50655,-3.12144 2.83981,-7.01291 3,-8c0.50655,-3.12144 0.77025,-4.02675 1,-5c0.51375,-2.17625 -2.91925,-4.20761 -7,16c-0.19795,0.98021 -1.25194,2.88051 -4,9c-6.61819,14.73769 -7,17 -9,21c-1,2 -2.76951,4.39099 -5,8c-1.66251,2.68999 -1.23463,4.15224 -2,6c-0.5412,1.30656 -2.19028,2.88152 -4,6c-1.12234,1.93399 -2.34619,4.70546 -4,7c-1.30745,1.814 -1.61065,5.15927 -3,8c-1.58411,3.23892 -3.48626,4.82375 -4,7c-0.68926,2.91975 -1.28859,4.86829 -3,9c-1.21015,2.92157 -2.56869,5.78275 -5,13c-1.31629,3.90735 -0.84723,6.04132 -2,10c-0.88413,3.03616 -1.41589,5.76108 -3,9c-1.38935,2.84073 -1.48626,6.82375 -2,9c-0.4595,1.9465 -0.61732,3.07613 -1,4c-1.08239,2.61313 -1.77025,3.02675 -2,4c-0.51374,2.17625 -1.49346,3.87856 -2,7c-0.32037,1.97418 0.68926,3.08025 0,6c-0.51374,2.17625 -0.62179,5.03609 -1,7c-1.01837,5.28799 -2,6 -2,9c0,2 0,4 0,6c0,5 1,7 1,8c0,1 1,3 3,3c0,0 1.49346,0.12144 2,-3c0.80091,-4.93544 0,-9 0,-19c0,-5 0,-7 0,-9c0,-1 0,-1 -2,-1c-1,0 -4,1 -5,1c-1,0 -3,0 -4,0c-1,0 -1.08582,0.57957 -3,0c-3.45084,-1.04483 -3,-6 -3,-20c0,-5 -0.49622,-6.90779 -1,-11c-0.12218,-0.99251 0.22975,-3.02675 0,-4c-0.51374,-2.17625 -2.07612,-2.61731 -3,-3c-1.30656,-0.5412 -2.85273,-2.1731 -4,-3c-1.81399,-1.30745 -3.38688,-1.9176 -6,-3c-0.92388,-0.38269 -2.07612,0.38269 -3,0c-1.30656,-0.5412 -1.82375,-1.48625 -4,-2c-0.97325,-0.22975 -0.85571,-0.06586 0,2c1.21015,2.92157 1.1731,3.85274 2,5c1.30745,1.814 2,3 2,5c0,3 -0.08744,4.20607 -5,2c-4.07966,-1.83203 -7.30656,-5.4588 -6,-6c0.92388,-0.38269 4,1 6,2c2,1 4.41886,1.41885 6,3c1.58114,1.58115 2.34619,3.70546 4,6c1.30745,1.814 1.45881,2.69344 2,4c0.38268,0.92387 0.48626,1.82375 1,4c0.45951,1.9465 1,2 1,1c0,-4 -0.15277,-10.04132 1,-14c0.88413,-3.03616 2.14429,-4.93414 3,-7c1.21015,-2.92157 2,-4 3,-5c2,-2 4,-4 6,-6c4,-4 6,-6 9,-9c4,-4 7,-8 9,-10c2,-2 3.51929,-3.5582 6,-7c1.30745,-1.814 4,-6 5,-8c2,-4 3.37135,-6.74675 6,-11c2.35114,-3.80423 3.33749,-7.31001 5,-10c2.23049,-3.60901 4.3327,-5.75312 5,-7c2.40601,-4.49567 2.95517,-6.54916 4,-10c0.28979,-0.95709 2,-5 1,-5c-3,0 -3.34315,12.87605 -5,18c-1.26855,3.92311 -4.2074,11.9538 -5,16c-1.3593,6.93919 -3.24357,13.07217 -4,17c-1.01837,5.28799 -4.54136,7.70267 -6,11c-1.66801,3.77065 -2.38509,6.37201 -5,10c-0.8269,1.14726 -2.59399,3.513 -5,5c-2.68999,1.66251 -3.69344,2.4588 -5,3c-1.84776,0.76537 -4.07612,1.61731 -5,2c-1.30656,0.5412 -2,1 -3,1c-1,0 -2.186,0.30745 -4,-1c-1.14727,-0.8269 -2.61732,-1.92387 -3,-1c-0.5412,1.30656 2.49622,1.90779 3,6c0.12218,0.99251 0,3 0,4c0,0 2,3 2,4l0,2l0,2" id="svg_10" opacity="undefined" stroke-dasharray="null" stroke-width="21" fill="#dbdbdb"/>
  <path d="m55.5,165c-1,-2 6,-11 10,-17c2,-3 5,-6 8,-9c1,-1 3,-3 5,-5c1,-1 2,-1 3,-2c2,-2 6.17049,-5.83869 9,-9c4.27038,-4.77115 4.38509,-6.37202 7,-10c1.65381,-2.29454 2.71412,-5.21168 5,-8c1.79319,-2.18734 3.54901,-2.60642 7,-8c2.41027,-3.76704 2.5405,-6.0535 3,-8c0.51374,-2.17625 1.87766,-3.066 3,-5c1.80972,-3.11848 3,-5 5,-8c2,-3 2.78985,-5.07844 4,-8c0.85571,-2.06586 3,-4 4,-5c1,-1 1.61731,-1.07612 2,-2c0.5412,-1.30656 1.69344,-2.45881 3,-3c1.84776,-0.76537 2.77025,-1.02675 3,-2c0.51375,-2.17625 2.51929,-2.55819 5,-6c1.30745,-1.81399 1,-4 2,-5l2,-2l1,-3l1,-1" id="svg_11" opacity="undefined" stroke-dasharray="null" stroke-width="21" fill="#dbdbdb"/>
  <path d="m53.5,171c1,0 3.18601,-0.69255 5,-2c3.44181,-2.48071 5,-5 8,-7c3,-2 7.21168,-5.71413 10,-8c1.09367,-0.89659 2,-2 3,-2c1,0 2.71412,-2.21167 5,-5c1.79319,-2.18735 3,-4 4,-5c2,-2 3.69255,-5.186 5,-7c1.65381,-2.29454 4,-4 5,-6l1,-2l1,-1" id="svg_12" opacity="undefined" stroke-dasharray="null" stroke-width="21" fill="#dbdbdb"/>
  <path d="m145.5,34c0,0 -0.68925,2.08025 0,5c0.51375,2.17625 2.4588,4.69344 3,6c0.76537,1.84776 2.41589,3.76108 4,7c1.38936,2.84072 3,5 3,6c0,0 1.48625,0.82375 2,3c0.4595,1.9465 2.2565,3.797 3,5c1.66251,2.68999 2.51929,3.55819 5,7c1.30745,1.814 2.31021,3.71899 5,7c2.28587,2.78832 2.34619,3.70546 4,6c1.30745,1.814 1.69255,3.186 3,5c1.65381,2.29454 2.69255,3.186 4,5c0.8269,1.14727 1,3 3,5c1,1 2,3 3,4c2,2 2.69255,3.186 4,5c0.8269,1.14727 3.4588,1.69344 4,3c0.38269,0.92388 0,2 1,4c1,2 2,4 4,6c1,1 2,3 2,4c0,1 2,3 3,4c0,0 1,2 2,3c2,2 1.77025,4.02675 2,5c0.51375,2.17625 1,3 2,4c2,2 3.19028,3.88152 5,7c1.12234,1.93399 3,4 4,6c1,2 2,5 4,7c1,1 0.61731,2.07613 1,3c0.5412,1.30656 2.77025,3.02675 3,4c0.51375,2.17625 1.33749,3.31001 3,6c0.7435,1.203 2,2 3,3c1,1 2,2 3,3c1,1 2.2242,1.90283 3,4c1.4305,3.867 3.4588,4.69344 4,6c0.76537,1.84776 1,3 1,5l0,4l1,1l1,1" id="svg_13" opacity="undefined" stroke-dasharray="null" stroke-width="21" fill="#dbdbdb"/>
  <path d="m209.5,111c0,2 1.56349,5.70251 4,11c1.32138,2.87297 2,5 5,8c1,1 1.71413,2.21167 4,5c0.89659,1.09367 1.33749,2.31001 3,5c1.487,2.40601 3.4588,2.69344 4,4c0.38269,0.92387 0.71413,2.21167 3,5c0.89659,1.09367 1.4588,1.69344 2,3c0.38269,0.92387 0.69255,3.186 2,5c0.8269,1.14726 1.61731,2.07613 2,3c0.5412,1.30656 0.23463,3.15224 1,5c0.5412,1.30656 2,4 3,5c1,1 1,3 2,5c2,4 3,6 4,7c1,1 1,2 3,4c1,1 2.31001,0.33749 5,2c1.203,0.7435 2,2 3,3c0,0 1,1 2,1l0,1l0,1l0,0" id="svg_14" opacity="undefined" stroke-dasharray="null" stroke-width="21" fill="#dbdbdb"/>
  <path d="m141.5,30c1,0 2.9034,4.0169 4,10c0.91925,5.01547 3,9 3,10c0,1 -0.14806,2.22836 1,5c0.5412,1.30656 1,2 1,4c0,1 0.49345,3.87856 1,7c0.48055,2.96127 0,5 0,6c0,2 2,4 2,5c0,3 0,8 0,10c0,2 0,4 0,9c0,4 0,8 0,11c0,3 0,7 0,10c0,4 0,9 0,15c0,2 0,7 0,10c0,4 0,8 0,12c0,3 0,5 0,7c0,4 -0.24744,10.01022 0,13c0.50171,6.06204 0.79971,16.06569 2,27c1.00601,9.16449 2,17 2,26c0,7 0,13 0,18c0,5 0,11 0,15l0,2l0,3" id="svg_15" opacity="undefined" stroke-dasharray="null" stroke-width="21" fill="#dbdbdb"/>
  <path d="m157.5,60c0,0 3,9 4,14c1,5 2,10 2,15c0,3 0.37669,7.88732 2,14c1.30876,4.9282 2.48625,8.82375 3,11c0.68925,2.91975 -0.68925,5.08025 0,8c0.51375,2.17625 0.62148,3.16051 2,9c0.51375,2.17625 0.80292,5.00974 1,7c0.50244,5.0742 1.49756,9.9258 2,15c0.49269,4.97566 1.38908,10.03746 2,15c0.50377,4.09221 1.50731,13.02434 2,18c0.50244,5.0742 1,12 1,17c0,4 0,12 0,16c0,4 0,6 0,9c0,1 0,4 0,6c0,2 0,6 0,11c0,4 0,8 0,10c0,4 0,7 0,8c0,2 0,5 0,9c0,2 0,3 0,5l0,2l0,1" id="svg_16" opacity="undefined" stroke-dasharray="null" stroke-width="21" fill="#dbdbdb"/>
  <path d="m172.5,114c0,8 0,16 0,23c0,7 0,13 0,16c0,4 0,7 0,10c0,4 -0.06143,10.9915 -1,18c-1.07013,7.99092 -1,11 -1,13c0,3 -0.48625,4.82375 -1,7c-0.91901,3.89299 0.37852,7.16051 -1,13c-1.02748,4.35251 -2,7 -2,10c0,2 0,5 0,10c0,3 0,7 0,10c0,1 -0.49345,4.87856 -1,8c-0.48055,2.96126 -0.4588,7.69345 -1,9c-1.14806,2.77164 0,6 0,9c0,2 0,6 0,11c0,0 0.22975,3.02676 0,4c-0.51375,2.17624 -1,7 -1,10l-1,1l-1,1" id="svg_17" opacity="undefined" stroke-dasharray="null" stroke-width="21" fill="#dbdbdb"/>
  <path d="m53.5,165c0,2 2.22427,6.83661 8,15c2.08247,2.94336 4.15928,3.61064 7,5c3.23892,1.58411 6.41886,2.41885 8,4c1.58114,1.58115 1,3 1,5c0,4 0,6 0,7c0,2 0.71142,4.63695 3,10c4.47506,10.48685 5.47442,21.58261 13,39c5.85622,13.55377 7.79394,24.08743 10,29c3.66408,8.15933 4.38509,13.37201 7,17c0.8269,1.14728 2.48626,3.82376 3,6c0.22975,0.97324 1.15224,0.23462 3,1c2.61313,1.0824 3.71412,4.21167 6,7c1.79319,2.18735 4.4588,4.69345 5,6c0.38268,0.92389 1.1731,3.85272 2,5c1.30745,1.814 2,4 2,5c0,0 0.48625,0.82376 1,3c0.22975,0.97324 -1.15224,1.76538 -3,1c-1.30656,-0.5412 -3.1731,-2.85272 -4,-4c-1.30745,-1.814 -1,-3 -1,-4l-1,0l-1,-1l1,-4" id="svg_18" opacity="undefined" stroke-dasharray="null" stroke-width="21" fill="#dbdbdb"/>
  <path d="m182.5,103c0,4 1.49957,10.96881 2,23c0.24936,5.99481 -0.1387,14.00966 0,15c1.00977,7.20975 2.5695,10.133 4,14c0.7758,2.09717 1,7 1,12c0,4 0,9 0,13c0,5 0,10 0,12c0,3 0,7 0,10c0,5 0.49756,8.9258 1,14c0.29561,2.9854 0,6 0,11c0,2 0,3 0,5c0,2 0,4 0,8c0,4 0,6 0,9c0,2 0,6 0,10c0,7 0,11 0,13l0,2l0,1" id="svg_19" opacity="undefined" stroke-dasharray="null" stroke-width="21" fill="#dbdbdb"/>
  <path d="m199.5,140c0,-1 -0.26855,-0.92311 1,3c1.65685,5.12395 3.70857,12.04184 5,20c0.81677,5.03317 1.49345,8.87856 2,12c0.16019,0.98709 1.5405,4.0535 2,6c0.51375,2.17625 1,7 1,11c0,4 0,6 0,10c0,4 -0.76537,6.15224 0,8c0.5412,1.30656 1,2 1,3c0,2 0,5 0,7c0,2 0.91901,4.10701 0,8c-1.02748,4.35251 -3,8 -3,12c0,1 -0.4588,1.69344 -1,3c-0.76537,1.84776 0,3 0,3c0,1 0,3 0,4l-1,2l0,2" id="svg_20" opacity="undefined" stroke-dasharray="null" stroke-width="21" fill="#dbdbdb"/>
  <path d="m264.5,190c-1,1 -1.33749,3.31001 -3,6c-2.2305,3.60901 -6.91753,7.05664 -9,10c-2.88786,4.0817 -5,6 -8,9c-1,1 -2.71413,3.21167 -5,6c-2.68979,3.28101 -4.90633,5.10341 -6,6c-2.78833,2.28587 -3.71413,3.21167 -6,6c-1.7932,2.18735 -3.86325,2.1468 -6,4c-3.77727,3.27602 -6.07613,3.61731 -7,4c-1.30656,0.5412 -2.1468,2.86325 -4,5c-3.27602,3.77727 -4.69255,6.186 -6,8c-0.8269,1.14726 -1,2 -2,6l-1,3l-1,2" id="svg_21" opacity="undefined" stroke-dasharray="null" stroke-width="21" fill="#dbdbdb"/>
  <path d="m230.5,213c0,-2 -0.51945,-4.03874 -1,-7c-0.50655,-3.12144 -1.867,-6.03442 -4,-14c-1.8831,-7.03235 -3,-16 -7,-26c-2,-5 -3.91873,-10.34508 -6,-15c-2.04085,-4.56453 -3.34518,-8.17697 -5,-13c-0.72569,-2.11504 -1,-3 -3,-6l0,-1" id="svg_23" opacity="undefined" stroke-dasharray="null" stroke-width="21" fill="#dbdbdb"/>
  <path d="m190.5,129c1,1 4.45514,5.14064 6,10c2.98393,9.38596 5.33749,12.31001 7,15c0.7435,1.203 2,3 2,4c0,2 0,3 0,5c0,1 0,2 0,4c0,2 -0.68925,7.08025 0,10c0.51375,2.17625 0.91231,5.03067 2,8c1.85226,5.05659 2.50731,10.02434 3,15c0.50244,5.0742 2,14 4,20c1,3 1.48625,5.82375 2,8c0.4595,1.9465 1,5 2,6c2,2 2,3 3,4l2,5l1,1l1,1" id="svg_24" opacity="undefined" stroke-dasharray="null" stroke-width="21" fill="#dbdbdb"/>
  <path d="m217.5,166c-2,5 -3.28967,13.16264 -5,19c-2.14137,7.30852 -5,16 -9,30c-2,7 -3.91034,8.09831 -6,15c-1.44891,4.78546 -0.48625,7.82375 -1,10c-0.22975,0.97325 0,-2 0,-12c0,-9 0.56349,-19.7025 3,-25c5.28552,-11.49188 7.45978,-15.84235 10,-24c1.22585,-3.93666 3.21288,-8.07741 6,-13c2.03145,-3.58792 1,-7 2,-10l1,-1l0,-1" id="svg_25" opacity="undefined" stroke-dasharray="null" stroke-width="21" fill="#dbdbdb"/>
  <path d="m208.5,173c-1,2 -1,11 -1,17c0,9 0,15 0,19l0,2l0,2" id="svg_26" opacity="undefined" stroke-dasharray="null" stroke-width="21" fill="#dbdbdb"/>
  <path d="m235.5,205c0,1 -1.73145,4.07689 -3,8c-1.65685,5.12395 -5.50389,9.76102 -11,22c-2.20607,4.91257 -4.2242,8.90283 -5,11c-1.4305,3.867 -2.51929,5.5582 -5,9c-2.6149,3.62799 -5,7 -6,9l-1,1" id="svg_27" opacity="undefined" stroke-dasharray="null" stroke-width="21" fill="#dbdbdb"/>
  <path d="m234.5,234c-1,0 -0.63345,3.02248 -1,6c-0.50377,4.09221 -3,6 -5,10c-1,2 -2,5 -3,6c-1,1 -3.88152,4.19028 -7,6c-1.93399,1.12234 -4,3 -5,3l-2,0" id="svg_28" opacity="undefined" stroke-dasharray="null" stroke-width="21" fill="#dbdbdb"/>
  <path d="m103.5,306c1,3 4.4588,6.69345 5,8c0.76537,1.84775 1.34619,2.70547 3,5c1.30745,1.814 2.60703,5.17572 5,10c2.59106,5.22363 8.29869,7.82108 10,11c0.47186,0.88168 0.5405,2.0535 1,4c0.51375,2.17624 1.90633,5.89661 3,5c2.78833,-2.28589 -2,-11 -2,-22c0,-10 0,-16 0,-18c0,-11 1.60828,-16.18726 0,-23c-1.02749,-4.35251 -3.98692,-5.75711 -5,-12c-0.48055,-2.96127 0,-6 0,-8c0,-1 -0.49346,-1.87857 -1,-5c-0.16018,-0.98709 0,-2 0,-5c0,-2 0,-9 0,-11c0,-5 0,-11 0,-14c0,-2 0,-4 0,-5c0,-2 0,-4 0,-5c0,-2 1.37669,-4.88731 3,-11c1.30875,-4.92821 1.58481,-11.16824 5,-19c1.7876,-4.09933 3.09882,-9.98827 4,-18c1.12335,-9.98689 1.28859,-17.86829 3,-22c1.21014,-2.92157 2,-5 3,-9l2,-4l1,-1l0,-1" id="svg_29" opacity="undefined" stroke-dasharray="null" stroke-width="21" fill="#dbdbdb"/>
  <path d="m126.5,325c1,2 2.11833,2.52814 3,3c3.17892,1.70129 3.85274,6.8269 5,6c1.814,-1.30746 -3,-13 -3,-15c0,-5 0,-8 0,-13c0,-2 1,-5 0,-5c-3,0 -1.69238,7.41092 -5,12c-1.30745,1.814 -3.61732,5.07611 -4,6c-0.5412,1.30655 0.38509,8.37201 3,12c0.8269,1.14728 0.69344,2.4588 2,3c0.92387,0.38269 1.22836,1.14804 4,0c1.30656,-0.5412 4.67155,-2.20132 6,-4c3.61378,-4.89291 3.11214,-8.9183 6,-13c2.08247,-2.94336 5,-7 7,-10l2,-4l1,-1" id="svg_30" opacity="undefined" stroke-dasharray="null" stroke-width="21" fill="#dbdbdb"/>
  <path d="m218.5,191c-1,-3 -3.49756,-7.9258 -4,-13c-0.49269,-4.97566 -0.79362,-9.68768 -4,-19c-1.34232,-3.89848 -0.96855,-8.41208 -3,-12c-0.69678,-1.23065 -1.63077,6.40605 -7,22c-3.20638,9.31232 -5.27673,20.62259 -10,31c-2.98726,6.56325 -6.44841,11.80565 -8,16c-1.4305,3.867 -1.03981,5.97307 1,3c11.77232,-17.15845 26.90024,-33.31935 32,-41c3.71062,-5.5885 6.99496,-12.85822 5,-13c-7.05328,-0.50127 -2,15 -2,18c0,4 -0.71413,7.21167 -3,10c-0.89659,1.09367 -1,1 -5,1c-1,0 -4,-1 -4,-5c0,-11 2.03175,-22.67336 6,-37c2.7222,-9.828 1.61731,-14.07613 2,-15c0.5412,-1.30656 2,1 2,5c0,6 0,21 0,30l0,11l0,3l0,0" id="svg_31" opacity="undefined" stroke-dasharray="null" stroke-width="21" fill="#dbdbdb"/>
 </g>
</svg>